<svg width="32" height="32" viewBox="0 0 32 32" fill="none" xmlns="http://www.w3.org/2000/svg">
<path d="M5.95864 19.3573H9.5432V21.1735H5.95864C5.4807 21.1735 5.05055 21.5558 5.05055 22.0816C5.05055 22.6073 5.43291 22.9897 5.95864 22.9897H28.3263C28.8042 22.9897 29.2344 23.372 29.2344 23.8977C29.2344 24.3757 28.852 24.8058 28.3263 24.8058H5.91084C4.42923 24.8058 3.23438 23.611 3.23438 22.1294C3.23438 20.5522 4.47702 19.3573 5.95864 19.3573ZM5.28952 13.1919L7.05791 13.0485C7.05791 13.0007 5.95864 6.4529 5.71967 5.11466C5.57629 4.34995 5.28952 2.19922 2.56526 2.19922V4.0154C3.66452 4.0154 3.8079 4.44554 3.90349 5.25804C4.19026 6.59628 5.28952 13.0963 5.28952 13.1919Z" fill="#B2C1C0"/>
<path d="M5.19123 6.78906H29.4228C30.3309 6.78906 30.4743 7.64936 30.3309 8.1273L27.6067 20.267C27.4633 20.7449 26.9853 21.1273 26.4596 21.1273H7.43755C6.95961 21.1273 6.48167 20.7449 6.38608 20.2192L4.37873 7.64936C4.33093 7.21921 4.71329 6.78906 5.19123 6.78906ZM28.0368 10.8516L28.5148 9.03539C28.5626 8.79642 28.4192 8.60524 28.1802 8.60524H24.7868C24.5478 8.60524 24.3089 8.79642 24.3089 9.03539L24.1177 10.8516C24.0699 11.0905 24.2611 11.2817 24.5001 11.2817H27.5111C27.7501 11.2817 27.989 11.0905 28.0368 10.8516ZM26.5074 15.2964C26.7464 15.2964 26.9853 15.1052 27.0809 14.8663L27.4155 13.4802C27.4633 13.2413 27.3199 13.0501 27.0809 13.0501H24.3567C24.1177 13.0501 23.8787 13.2413 23.8787 13.4802L23.7353 14.8185C23.6876 15.0574 23.8787 15.2486 24.1177 15.2486C24.0699 15.2964 26.5074 15.2964 26.5074 15.2964ZM23.6398 19.3589H25.5037C25.7427 19.3589 25.9817 19.1677 26.0773 18.9288L26.4118 17.5427C26.4596 17.3038 26.3162 17.1126 26.0773 17.1126H23.9265C23.6876 17.1126 23.4486 17.3038 23.4486 17.5427L23.3052 18.881C23.2096 19.1199 23.4008 19.3589 23.6398 19.3589ZM18.1434 18.881C18.1434 19.1199 18.3346 19.3111 18.5736 19.3111H20.9155C21.1545 19.3111 21.3934 19.1199 21.3934 18.881L21.5368 17.5427C21.5846 17.3038 21.3934 17.1126 21.1545 17.1126H18.5736C18.3346 17.1126 18.1434 17.3038 18.1434 17.5427V18.881ZM18.1434 14.8663C18.1434 15.1052 18.3346 15.2964 18.5736 15.2964H21.3456C21.5846 15.2964 21.8236 15.1052 21.8236 14.8663L21.967 13.528C22.0148 13.2891 21.8236 13.0979 21.5846 13.0979H18.5736C18.3346 13.0979 18.1434 13.2891 18.1434 13.528V14.8663ZM18.1434 10.8516C18.1434 11.0905 18.3346 11.2817 18.5736 11.2817H21.7758C22.0148 11.2817 22.2537 11.0905 22.2537 10.8516L22.4927 9.03539C22.5405 8.79642 22.3493 8.60524 22.1103 8.60524H18.6214C18.3824 8.60524 18.1912 8.79642 18.1912 9.03539C18.1434 9.03539 18.1434 10.8516 18.1434 10.8516ZM13.2684 18.881C13.3162 19.1199 13.5074 19.3111 13.7464 19.3111H15.8493C16.0883 19.3111 16.2795 19.1199 16.2795 18.881V17.5427C16.2795 17.3038 16.0883 17.1126 15.8493 17.1126H13.5074C13.2684 17.1126 13.0773 17.3038 13.1251 17.5427L13.2684 18.881ZM12.8383 14.8663C12.8861 15.1052 13.0773 15.2964 13.3162 15.2964H15.8493C16.0883 15.2964 16.2795 15.1052 16.2795 14.8663V13.528C16.2795 13.2891 16.0883 13.0979 15.8493 13.0979H13.0773C12.8383 13.0979 12.6471 13.2891 12.6949 13.528L12.8383 14.8663ZM12.4081 10.8516C12.4559 11.0905 12.6471 11.2817 12.8861 11.2817H15.8493C16.0883 11.2817 16.2795 11.0905 16.2795 10.8516V9.03539C16.2795 8.79642 16.0883 8.60524 15.8493 8.60524H12.5993C12.3603 8.60524 12.1692 8.79642 12.217 9.03539L12.4081 10.8516ZM8.25005 18.881C8.29785 19.1199 8.53682 19.3111 8.77579 19.3111H11.0699C11.3089 19.3111 11.5001 19.1199 11.4523 18.881L11.3089 17.5427C11.2611 17.3038 11.0699 17.1126 10.8309 17.1126H8.39343C8.15446 17.1126 7.96329 17.3038 8.01108 17.5427L8.25005 18.881ZM7.62873 14.8663C7.67652 15.1052 7.91549 15.2964 8.15446 15.2964H10.6876C10.9265 15.2964 11.1177 15.1052 11.0699 14.8663L10.9265 13.528C10.8787 13.2891 10.6876 13.0979 10.4486 13.0979H7.8199C7.58093 13.0979 7.38976 13.2891 7.43755 13.528L7.62873 14.8663ZM7.0074 10.8516C7.0552 11.0905 7.29417 11.2817 7.53314 11.2817H10.2574C10.4964 11.2817 10.6876 11.0905 10.6398 10.8516L10.4486 9.03539C10.4008 8.79642 10.2096 8.60524 9.97064 8.60524H7.15079C6.91182 8.60524 6.72064 8.79642 6.76843 9.03539L7.0074 10.8516Z" fill="#F15744"/>
<path d="M25.4563 30.5404C23.9782 30.5404 22.7799 29.3421 22.7799 27.864C22.7799 26.3858 23.9782 25.1875 25.4563 25.1875C26.9345 25.1875 28.1328 26.3858 28.1328 27.864C28.1328 29.3421 26.9345 30.5404 25.4563 30.5404Z" fill="#62727A"/>
<path d="M25.4586 29.2038C24.7196 29.2038 24.1204 28.6047 24.1204 27.8656C24.1204 27.1265 24.7196 26.5273 25.4586 26.5273C26.1977 26.5273 26.7969 27.1265 26.7969 27.8656C26.7969 28.6047 26.1977 29.2038 25.4586 29.2038Z" fill="white"/>
<path d="M9.304 30.5404C7.82582 30.5404 6.62753 29.3421 6.62753 27.864C6.62753 26.3858 7.82582 25.1875 9.304 25.1875C10.7822 25.1875 11.9805 26.3858 11.9805 27.864C11.9805 29.3421 10.7822 30.5404 9.304 30.5404Z" fill="#62727A"/>
<path d="M7.96415 27.8656C7.96415 28.6303 8.58548 29.2038 9.30239 29.2038C10.0671 29.2038 10.6406 28.5825 10.6406 27.8656C10.6406 27.1009 10.0193 26.5273 9.30239 26.5273C8.58548 26.5273 7.96415 27.1009 7.96415 27.8656Z" fill="white"/>
<path d="M2.13442 1.86719H3.47266V4.54366H2.13442C1.89545 4.54366 1.70427 4.35248 1.70427 4.11351V2.29733C1.70427 2.05836 1.89545 1.86719 2.13442 1.86719Z" fill="#62727A"/>
<path d="M25.4584 24.2812C27.418 24.2812 29.043 25.9062 29.043 27.8658H21.8739C21.8739 25.8585 23.4511 24.2812 25.4584 24.2812ZM9.304 24.2812C11.2636 24.2812 12.8886 25.9062 12.8886 27.8658H5.71944C5.71944 25.8585 7.34444 24.2812 9.304 24.2812Z" fill="#F15744"/>
</svg>
